<?xml version="1.0" encoding="utf-8"?>
<!-- Generator: Adobe Illustrator 23.0.2, SVG Export Plug-In . SVG Version: 6.00 Build 0)  -->
<svg version="1.1" id="Capa_1" xmlns="http://www.w3.org/2000/svg" xmlns:xlink="http://www.w3.org/1999/xlink" x="0px" y="0px"
	 viewBox="0 0 108 108" style="enable-background:new 0 0 108 108;" xml:space="preserve">
<style type="text/css">
	.st0{fill:#FFFFFF;}
	.st1{fill:#5FD9B3;}
	.st2{fill:#00CE8E;}
	.st3{fill:#FFB5C0;}
	.st4{fill:#F4698B;}
	.st5{fill:#FF8E9E;}
	.st6{fill:#313D40;}
</style>
<rect class="st0" width="108" height="108"/>
<g>
	<g>
		<path class="st1" d="M68.9,72.3h-3.3c-4.4,0-7.9,3.5-7.9,7.9l-7.9,7.2h15.1c4.4,0,7.9-3.5,7.9-7.9v-3.3
			C72.8,74.1,71,72.3,68.9,72.3z"/>
		<path class="st2" d="M66.7,78.4c-0.4-0.4-1-0.4-1.4,0L57.7,86V69.4l-3.9-2.6l-3.9,2.6v18h9.3l7.6-7.6
			C67.1,79.4,67.1,78.8,66.7,78.4z"/>
		<path class="st1" d="M53.7,62.8c-2.9,0-5.5,1.6-6.8,4c-1,1.7,0.3,3.9,2.3,3.9h9.1c2,0,3.3-2.2,2.3-3.9
			C59.2,64.4,56.7,62.8,53.7,62.8z"/>
	</g>
	<g>
		<path class="st3" d="M53.7,22.1c-5.2,0-9.5,4.2-9.5,9.5h18.9C63.2,26.3,59,22.1,53.7,22.1z"/>
		<path class="st4" d="M66.7,49.1c0,9.7-7.9,17.6-17.7,17.6s-17.7-7.9-17.7-17.6c0-5.8,4.1-13.8,7.5-19.4c2.2-3.6,7.1-4.5,10.4-1.9
			C56.3,33.4,66.7,42.7,66.7,49.1z"/>
		<path class="st5" d="M40.8,49.1c0,9.7,7.9,17.6,17.7,17.6s17.7-7.9,17.7-17.6c0-5.8-4.1-13.8-7.5-19.4c-2.2-3.6-7.1-4.5-10.4-1.9
			C51.2,33.4,40.8,42.7,40.8,49.1z"/>
	</g>
	<g>
		<g>
			<ellipse class="st4" cx="43.3" cy="55" rx="3.9" ry="3.1"/>
			<ellipse class="st4" cx="64.2" cy="55" rx="3.9" ry="3.1"/>
		</g>
	</g>
	<g>
		<path class="st6" d="M45.5,49.5c-0.5,0-1,0.4-1,1V52c0,0.5,0.4,1,1,1s1-0.4,1-1v-1.6C46.5,49.9,46.1,49.5,45.5,49.5z"/>
		<path class="st6" d="M61.9,49.5c-0.5,0-1,0.4-1,1V52c0,0.5,0.4,1,1,1s1-0.4,1-1v-1.6C62.9,49.9,62.5,49.5,61.9,49.5z"/>
		<path class="st6" d="M56.5,51.2c-0.4-0.4-1-0.3-1.4,0.1c-0.4,0.4-0.9,0.6-1.4,0.6s-1.1-0.2-1.4-0.6c-0.4-0.4-1-0.5-1.4-0.1
			c-0.4,0.4-0.5,1-0.1,1.4c0.7,0.8,1.8,1.3,2.9,1.3s2.2-0.5,2.9-1.3C57,52.2,57,51.6,56.5,51.2z"/>
	</g>
</g>
</svg>
